<?xml version="1.0" standalone="no"?><!DOCTYPE svg PUBLIC "-//W3C//DTD SVG 1.1//EN" "http://www.w3.org/Graphics/SVG/1.1/DTD/svg11.dtd"><svg t="1616462760486" class="icon" viewBox="0 0 1024 1024" version="1.1" xmlns="http://www.w3.org/2000/svg" p-id="8577" xmlns:xlink="http://www.w3.org/1999/xlink" width="200" height="200"><defs><style type="text/css"></style></defs><path d="M964.8 452.8c0-65.6-52.8-118.4-118.4-118.4-60.8 0-110.4 46.4-118.4 105.6H236.8c-6.4-59.2-57.6-105.6-118.4-105.6-65.6 0-118.4 52.8-118.4 118.4 0 28.8 9.6 56 27.2 75.2C9.6 550.4 0 576 0 604.8c0 65.6 52.8 118.4 118.4 118.4 60.8 0 110.4-46.4 118.4-105.6h492.8c6.4 59.2 57.6 105.6 118.4 105.6 65.6 0 118.4-52.8 118.4-118.4 0-28.8-9.6-56-27.2-75.2 16-20.8 25.6-48 25.6-76.8z" fill="#98CCF6" p-id="8578"></path><path d="M990.4 384c0-62.4-51.2-113.6-113.6-113.6-57.6 0-105.6 43.2-112 100.8H296c-6.4-56-54.4-100.8-112-100.8-62.4 0-113.6 51.2-113.6 113.6 0 27.2 9.6 52.8 25.6 72-16 19.2-25.6 44.8-25.6 72 0 62.4 51.2 113.6 113.6 113.6 57.6 0 105.6-43.2 112-100.8h470.4c6.4 56 54.4 100.8 112 100.8 62.4 0 113.6-51.2 113.6-113.6 0-27.2-9.6-52.8-25.6-72 14.4-20.8 24-44.8 24-72z" fill="#FFFFFF" p-id="8579"></path><path d="M878.4 270.4c62.4 0 113.6 51.2 113.6 113.6 0 27.2-9.6 52.8-25.6 72 16 19.2 25.6 44.8 25.6 72 0 62.4-51.2 113.6-113.6 113.6-57.6 0-105.6-43.2-112-100.8H296c-6.4 56-54.4 100.8-112 100.8-62.4 0-113.6-51.2-113.6-113.6 0-27.2 9.6-52.8 25.6-72-16-19.2-25.6-44.8-25.6-72 0-62.4 51.2-113.6 113.6-113.6 57.6 0 105.6 43.2 112 100.8h470.4c4.8-57.6 52.8-100.8 112-100.8m0-33.6c-64 0-120 41.6-139.2 100.8h-416c-19.2-59.2-75.2-100.8-139.2-100.8-80 0-145.6 65.6-145.6 145.6 0 25.6 6.4 51.2 19.2 72-12.8 22.4-19.2 46.4-19.2 72 0 80 65.6 145.6 145.6 145.6 64 0 120-41.6 139.2-100.8h416c19.2 59.2 75.2 100.8 139.2 100.8 80 0 145.6-65.6 145.6-145.6 0-25.6-6.4-51.2-19.2-72 12.8-22.4 19.2-46.4 19.2-72 0-80-65.6-145.6-145.6-145.6z" fill="#05498F" p-id="8580"></path><path d="M958.4 387.2c0-44.8-36.8-81.6-81.6-81.6" fill="#FFFFFF" p-id="8581"></path><path d="M958.4 403.2c-9.6 0-16-8-16-16 0-35.2-28.8-64-64-64-9.6 0-16-8-16-16 0-9.6 8-16 16-16 54.4 0 97.6 43.2 97.6 97.6 0 8-8 14.4-17.6 14.4z" fill="#05498F" p-id="8582"></path><path d="M252.8 387.2c0-44.8-36.8-81.6-81.6-81.6" fill="#FFFFFF" p-id="8583"></path><path d="M252.8 403.2c-9.6 0-16-8-16-16 0-35.2-28.8-64-64-64-9.6 0-16-8-16-16 0-9.6 8-16 16-16 54.4 0 97.6 43.2 97.6 97.6-1.6 8-9.6 14.4-17.6 14.4z" fill="#05498F" p-id="8584"></path><path d="M936 438.4m-17.6 0a17.6 17.6 0 1 0 35.2 0 17.6 17.6 0 1 0-35.2 0Z" fill="#05498F" p-id="8585"></path></svg>